# xmcd
#
# Track frame offsets:
#	150
#	19772
#	39618
#	54222
#	69529
#	83500
#	99955
#	114641
#	127830
#	145479
#	160558
#	176252
#	190527
#	207708
#	224768
#	241450
#	258445
#	276205
#	292941
#	307990
#
# Disc length: 4349 seconds
#
# Revision: 4
# Processed by: cddbd v1.5.2PL0 Copyright (c) Steve Scherf et al.
# Submitted via: EasyCDDAExtractor 15.3.0.1
#
DISCID=1710fb14
DTITLE=Pandora - Sus Eternos Exitos De Oro
DYEAR=2002
DGENRE=Latin
TTITLE0=Amor Eterno
TTITLE1=Con Tu Amor
TTITLE2=Te Voy A Olvidar
TTITLE3=Sea Mi Condena
TTITLE4=Mi Fracaso
TTITLE5=Ya No Es Lo Mismo
TTITLE6=Gotitas De Miel
TTITLE7=Cuando No Estas Conmigo
TTITLE8=Tarde O Temprano
TTITLE9=Para Escribir Tu Nombre
TTITLE10=Ni Tu Ni Yo
TTITLE11=De Mil Maneras
TTITLE12=Un Mal Amor
TTITLE13=Ilegal
TTITLE14=Cinco Minutos De Amor
TTITLE15=Matandome Suavemente
TTITLE16=No Puedo Dejar De Pensar En Ti
TTITLE17=Solo El Y Yo
TTITLE18=Como Una Mariposa
TTITLE19=Como Te Va Mi Amor
EXTD=
EXTT0=
EXTT1=
EXTT2=
EXTT3=
EXTT4=
EXTT5=
EXTT6=
EXTT7=
EXTT8=
EXTT9=
EXTT10=
EXTT11=
EXTT12=
EXTT13=
EXTT14=
EXTT15=
EXTT16=
EXTT17=
EXTT18=
EXTT19=
PLAYORDER=
